<svg width="24" height="24" viewBox="0 0 24 24" fill="none" xmlns="http://www.w3.org/2000/svg">
  <g clip-path="url(#clip0_587_8852)">
  <path d="M24 12C24 14.3734 23.2962 16.6935 21.9776 18.6668C20.6591 20.6402 18.7849 22.1783 16.5922 23.0866C14.3995 23.9948 11.9867 24.2324 9.65892 23.7694C7.33115 23.3064 5.19295 22.1635 3.51472 20.4853C1.83649 18.8071 0.693605 16.6689 0.230582 14.3411C-0.232441 12.0133 0.00519936 9.60051 0.913451 7.4078C1.8217 5.21509 3.35977 3.34094 5.33316 2.02236C7.30655 0.703788 9.62663 0 12 0C15.1826 0 18.2348 1.26428 20.4853 3.51472C22.7357 5.76516 24 8.8174 24 12Z" fill="#F7931A" style="fill:#F7931A;fill:color(display-p3 0.9686 0.5765 0.1020);fill-opacity:1;"/>
  <path fill-rule="evenodd" clip-rule="evenodd" d="M8.52872 5.47981L11.2865 6.21835L11.9029 3.9209L13.2818 4.29508L12.6895 6.49763L13.8142 6.79981L14.4076 4.57326L15.8105 4.94853L15.2062 7.18708C15.2062 7.18708 17.4971 7.69435 18.036 9.55763C18.5749 11.4209 16.8513 12.3994 16.3189 12.4365C16.3189 12.4365 18.3262 13.5373 17.6367 15.7027C16.9473 17.8682 14.8309 18.2554 12.6044 17.7591L12 20.0805L10.5971 19.7053L11.2135 17.4198L10.1007 17.1165L9.48436 19.4184L8.09236 19.0442L8.70981 16.7533L5.87891 15.9896L6.59236 14.4056C6.59236 14.4056 7.39091 14.6238 7.69309 14.6958C7.99527 14.7678 8.18945 14.4536 8.27454 14.1394C8.35963 13.8253 9.64145 8.61835 9.76254 8.18963C9.88363 7.7609 9.83454 7.42599 9.32618 7.29399C8.81782 7.16199 8.12618 6.95581 8.12618 6.95581L8.52872 5.47981ZM11.3105 12.3754L10.5469 15.4114C10.5469 15.4114 14.3335 16.7784 14.8178 14.8551C15.3022 12.9318 11.3105 12.3754 11.3105 12.3754ZM11.6618 10.9354L12.4113 8.15363C12.4113 8.15363 15.6535 8.73399 15.2542 10.282C14.8549 11.83 12.9436 11.2365 11.6618 10.9354Z" fill="white" style="fill:white;fill-opacity:1;"/>
  </g>
  <defs>
  <clipPath id="clip0_587_8852">
  <rect width="24" height="24" fill="white" style="fill:white;fill-opacity:1;"/>
  </clipPath>
  </defs>
</svg>